<?xml version="1.0" encoding="UTF-8"?>
<svg id="Layer_2" data-name="Layer 2" xmlns="http://www.w3.org/2000/svg" viewBox="0 0 323.52 102.42">
  <defs>
    <style>
      .cls-1 {
        fill: #00b811;
      }

      .cls-1, .cls-2, .cls-3 {
        stroke-width: 0px;
      }

      .cls-2 {
        fill: #1d1d1b;
      }

      .cls-3 {
        fill: #404040;
      }
    </style>
  </defs>
  <g id="Layer_1-2" data-name="Layer 1">
    <g>
      <g>
        <path class="cls-3" d="M137.6,96.78c0-3.24,2.47-5.64,5.81-5.64,1.61,0,3.07.54,4.05,1.61l-.74.74c-.9-.92-2.01-1.31-3.28-1.31-2.68,0-4.69,1.96-4.69,4.59s2.01,4.59,4.69,4.59c1.27,0,2.37-.4,3.28-1.33l.74.74c-.98,1.07-2.44,1.63-4.07,1.63-3.33,0-5.79-2.39-5.79-5.64Z"/>
        <path class="cls-3" d="M157.68,98.49v3.83h-1.16v-3.83l-4.43-7.25h1.25l3.8,6.22,3.8-6.22h1.17l-4.43,7.25Z"/>
        <path class="cls-3" d="M177.11,99.37c0,1.88-1.39,2.96-4.16,2.96h-5.1v-11.08h4.78c2.47,0,3.9,1.05,3.9,2.85,0,1.27-.68,2.11-1.69,2.52,1.43.32,2.28,1.25,2.28,2.75ZM169.02,92.21v4.02h3.53c1.77,0,2.8-.68,2.8-2.01s-1.03-2.01-2.8-2.01h-3.53ZM175.94,99.27c0-1.44-1.06-2.07-3.01-2.07h-3.91v4.16h3.91c1.95,0,3.01-.63,3.01-2.09Z"/>
        <path class="cls-3" d="M191.78,101.31v1.01h-7.84v-11.08h7.6v1.01h-6.43v3.94h5.73v1h-5.73v4.12h6.66Z"/>
        <path class="cls-3" d="M206.26,102.33l-2.53-3.56c-.28.03-.57.05-.89.05h-2.98v3.52h-1.17v-11.08h4.15c2.82,0,4.53,1.43,4.53,3.8,0,1.74-.92,2.96-2.53,3.48l2.71,3.8h-1.28ZM206.19,95.05c0-1.77-1.17-2.79-3.39-2.79h-2.94v5.56h2.94c2.22,0,3.39-1.03,3.39-2.77Z"/>
        <path class="cls-3" d="M223.77,92.26v4.35h5.73v1.01h-5.73v4.7h-1.17v-11.08h7.6v1.01h-6.43Z"/>
        <path class="cls-3" d="M235.65,96.78c0-3.23,2.47-5.64,5.82-5.64s5.81,2.39,5.81,5.64-2.49,5.64-5.81,5.64-5.82-2.41-5.82-5.64ZM246.11,96.78c0-2.64-1.98-4.59-4.64-4.59s-4.67,1.95-4.67,4.59,1.99,4.59,4.67,4.59,4.64-1.95,4.64-4.59Z"/>
        <path class="cls-3" d="M261.64,102.33l-2.53-3.56c-.28.03-.57.05-.89.05h-2.98v3.52h-1.17v-11.08h4.15c2.82,0,4.53,1.43,4.53,3.8,0,1.74-.92,2.96-2.53,3.48l2.71,3.8h-1.28ZM261.57,95.05c0-1.77-1.17-2.79-3.39-2.79h-2.94v5.56h2.94c2.22,0,3.39-1.03,3.39-2.77Z"/>
        <path class="cls-3" d="M277.97,91.25h1.17v10.07h6.21v1.01h-7.38v-11.08Z"/>
        <path class="cls-3" d="M291.45,91.25h1.17v11.08h-1.17v-11.08Z"/>
        <path class="cls-3" d="M301.55,92.26v4.35h5.73v1.01h-5.73v4.7h-1.17v-11.08h7.6v1.01h-6.43Z"/>
        <path class="cls-3" d="M322.4,101.31v1.01h-7.83v-11.08h7.6v1.01h-6.43v3.94h5.73v1h-5.73v4.12h6.66Z"/>
      </g>
      <g>
        <path class="cls-1" d="M52.98,42.37h0s-.03-.07-.04-.1c0-.02-.01-.03-.02-.05-.38-.96-.81-1.73-1.17-2.29-.52-.88-1.09-1.72-1.73-2.51-1.17,1.34-3.19,1.45-5.17,1.44-.4,0-.8,0-1.21,0,0,0,0,0-.01,0h0c-5.31-.02-11.52-.04-11.52-.04,4.12.87,6.06,3.18,6.06,3.18l3.16,4.23,2.31,11.51-.43.53h-.79l-2.13-6.58s-.24-1.03-1.76-1.64c-1.52-.62-6.53-2.61-6.53-2.61l-.46.44,5.53,4.87s1.46,1.15,1.79,3.17c.33,2.03,2.4,12.42,2.4,12.42,0,0-.03,1.12-1.16.7-1.12-.41-8.87-3.76-8.87-3.76,0,0-.73-.23-1.22-1.47-.49-1.23-2.22-5.31-5.81-7.02-3.4-1.61-6.2-1.88-9.12-1.98,0,.08-.01.15-.01.23,0,4.62,1.89,8.79,4.93,11.8-1.43-.77-2.7-1.75-3.79-2.94-1.37-1.5-2.43-3.23-3.2-5.2-.77-1.96-1.15-4.11-1.15-6.45s.38-4.51,1.15-6.55c.76-2.03,1.83-3.78,3.2-5.25,1.37-1.46,3-2.61,4.9-3.45,1.89-.83,4-1.25,6.32-1.25h17.71c3.16,0,5.76-2.34,6.19-5.37,0-.01,0-.02,0-.04.02-.15.03-.29.04-.44,0-.07.02-.14.02-.21v-5.64c-2.39,1.08-5.03,1.7-7.82,1.7h-16.33c-3.79.03-7.34.69-10.65,2-3.37,1.33-6.28,3.18-8.75,5.55-2.47,2.37-4.4,5.16-5.8,8.4-1.4,3.23-2.1,6.75-2.1,10.54s.7,7.21,2.1,10.44c1.4,3.23,3.33,6.03,5.8,8.39,2.46,2.37,5.38,4.23,8.75,5.6,3.36,1.36,6.98,2.05,10.84,2.05s7.48-.68,10.84-2.05c3.36-1.37,6.28-3.23,8.74-5.6,2.46-2.36,4.4-5.16,5.8-8.39,1.4-3.23,2.1-6.71,2.1-10.44s-.72-6.69-1.98-9.9Z"/>
        <path class="cls-2" d="M64.29,53.86c0-4.94.7-9.29,2.12-13.07,1.41-3.77,3.39-6.95,5.93-9.52,2.54-2.57,5.61-4.53,9.2-5.87,3.6-1.34,7.58-2.01,11.96-2.01,4.02,0,7.72.71,11.11,2.12,3.38,1.41,6.33,3.35,8.83,5.82,2.5,2.47,4.46,5.43,5.87,8.89,1.41,3.46,2.12,7.19,2.12,11.21s-.69,7.85-2.06,11.27c-1.38,3.42-3.28,6.37-5.71,8.84-2.43,2.47-5.29,4.39-8.57,5.77-3.28,1.37-6.86,2.06-10.74,2.06s-7.58-.78-10.69-2.33c-3.1-1.55-5.54-3.46-7.3-5.71v27.83h-12.06v-45.28ZM92.64,68.67c2.4,0,4.6-.44,6.61-1.32,2.01-.88,3.74-2.1,5.19-3.65,1.44-1.55,2.56-3.38,3.33-5.5.78-2.12,1.16-4.41,1.16-6.88s-.39-4.64-1.16-6.72c-.78-2.08-1.89-3.88-3.33-5.4-1.45-1.52-3.17-2.72-5.19-3.6-2.01-.88-4.22-1.32-6.61-1.32s-4.6.42-6.61,1.27c-2.01.85-3.74,2.01-5.19,3.49-1.45,1.48-2.57,3.26-3.38,5.34-.81,2.08-1.22,4.39-1.22,6.93s.4,4.76,1.22,6.88c.81,2.12,1.92,3.95,3.33,5.5,1.41,1.55,3.12,2.77,5.13,3.65,2.01.88,4.25,1.32,6.72,1.32Z"/>
        <path class="cls-2" d="M130.74,5.61c0-1.9.56-3.31,1.69-4.23,1.13-.92,2.71-1.38,4.76-1.38,1.27,0,2.43.16,3.49.48,1.06.32,1.76.55,2.12.69v76.81h-12.06V5.61Z"/>
        <path class="cls-2" d="M159.61,1.06c2.05,0,3.77.71,5.19,2.12,1.41,1.41,2.12,3.14,2.12,5.18s-.7,3.77-2.12,5.19c-1.41,1.41-3.14,2.12-5.19,2.12s-3.77-.7-5.18-2.12c-1.41-1.41-2.12-3.14-2.12-5.19s.7-3.77,2.12-5.18c1.41-1.41,3.14-2.12,5.18-2.12ZM153.58,30.47c0-1.97.56-3.4,1.69-4.29,1.13-.88,2.71-1.32,4.76-1.32,1.27,0,2.43.16,3.49.48,1.06.32,1.76.55,2.12.69v51.95h-12.06V30.47Z"/>
        <path class="cls-2" d="M176.39,30.47c0-1.97.56-3.4,1.69-4.29,1.13-.88,2.71-1.32,4.76-1.32,1.27,0,2.43.16,3.49.48s1.76.55,2.12.69v27.83c0,4.8,1.13,8.45,3.39,10.95,2.26,2.5,5.71,3.76,10.37,3.76s8.11-1.25,10.37-3.76c2.26-2.5,3.38-6.15,3.38-10.95v-23.38c0-1.97.56-3.4,1.69-4.29,1.13-.88,2.68-1.32,4.65-1.32,1.34,0,2.54.16,3.6.48,1.06.32,1.76.55,2.12.69v30.47c0,3.6-.62,6.82-1.85,9.68-1.24,2.86-3,5.27-5.29,7.25-2.29,1.98-5.03,3.48-8.2,4.5s-6.66,1.53-10.47,1.53-7.3-.51-10.47-1.53c-3.17-1.02-5.89-2.52-8.15-4.5-2.26-1.97-4.02-4.39-5.29-7.25-1.27-2.86-1.9-6.08-1.9-9.68v-26.03Z"/>
        <path class="cls-2" d="M237.5,43.8c0-3.39.6-6.35,1.8-8.89,1.2-2.54,2.84-4.66,4.92-6.35,2.08-1.69,4.53-2.98,7.35-3.86,2.82-.88,5.89-1.32,9.21-1.32,4.37,0,8.29.81,11.74,2.43,3.46,1.62,6.21,4.02,8.25,7.19,2.04-3.17,4.76-5.57,8.15-7.19,3.39-1.62,7.23-2.43,11.53-2.43,3.24,0,6.28.43,9.1,1.27,2.82.85,5.25,2.12,7.3,3.81,2.05,1.69,3.67,3.81,4.87,6.35,1.2,2.54,1.8,5.5,1.8,8.89v34.28h-12.06v-30.15c0-4.87-1.09-8.34-3.28-10.42-2.19-2.08-5.15-3.12-8.89-3.12s-6.61,1.16-9.05,3.49c-2.43,2.33-3.65,6.1-3.65,11.32v28.89h-12.06v-28.89c0-5.22-1.22-8.99-3.65-11.32-2.43-2.33-5.45-3.49-9.05-3.49s-6.63,1.06-8.89,3.17c-2.26,2.12-3.39,5.61-3.39,10.47v30.05h-12.06v-34.17Z"/>
      </g>
    </g>
  </g>
</svg>